<svg id="Layer_1" data-name="Layer 1" xmlns="http://www.w3.org/2000/svg" viewBox="0 0 717.48 176.79">
  <defs>
    <style>
      .cls-1 {
        fill: #ccc;
      }
    </style>
  </defs>
  <title>events</title>
  <g>
    <path class="cls-1" d="M72.46,184.21q-31.36,0-49.49-19.1t-18.13-53q0-34.18,16.84-54.33T66.91,37.61q26.58,0,42.07,17.49t15.48,46.13v13.55H27q.63,24.91,12.58,37.81T73.23,165.5A114.06,114.06,0,0,0,118.4,156V175a112.55,112.55,0,0,1-21.49,7A120.63,120.63,0,0,1,72.46,184.21ZM66.65,55.55q-17,0-27.16,11.1T27.55,97.36h73.94q0-20.25-9-31T66.65,55.55Z" transform="translate(-4.84 -7.42)"/>
    <path class="cls-1" d="M178.74,181.63,125.06,40.19h23l30.45,83.88q10.32,29.43,12.13,38.2h1q1.43-6.84,9-28.33t33.88-93.75h23L203.77,181.63Z" transform="translate(-4.84 -7.42)"/>
    <path class="cls-1" d="M326.7,184.21q-31.35,0-49.49-19.1t-18.13-53q0-34.18,16.84-54.33t45.23-20.13q26.58,0,42.07,17.49t15.49,46.13v13.55H281.28q.64,24.91,12.58,37.81t33.61,12.91A114,114,0,0,0,372.64,156V175a112.55,112.55,0,0,1-21.49,7A120.63,120.63,0,0,1,326.7,184.21ZM320.89,55.55q-17,0-27.16,11.1T281.79,97.36h73.95q0-20.25-9-31T320.89,55.55Z" transform="translate(-4.84 -7.42)"/>
    <path class="cls-1" d="M498.79,181.63V90.13q0-17.28-7.87-25.8t-24.65-8.52q-22.18,0-32.52,12t-10.32,39.62v74.2H402V40.19h17.42l3.49,19.36h1A43.64,43.64,0,0,1,442.4,43.36a59.92,59.92,0,0,1,26.46-5.75q25.54,0,38.45,12.33t12.9,39.42v92.27Z" transform="translate(-4.84 -7.42)"/>
    <path class="cls-1" d="M596.68,166.53a69.78,69.78,0,0,0,11-.84A71.4,71.4,0,0,0,616,164v16.39a39.4,39.4,0,0,1-10.26,2.77,77.13,77.13,0,0,1-12.19,1.1q-41,0-41-43.23V56.84H532.29V46.52l20.26-8.91,9-30.19H574V40.19h41V56.84H574v83.23q0,12.78,6.07,19.62T596.68,166.53Z" transform="translate(-4.84 -7.42)"/>
    <path class="cls-1" d="M722.32,143q0,19.74-14.71,30.46t-41.29,10.71q-28.14,0-43.88-8.91V155.43a106.3,106.3,0,0,0,21.88,8.13,91.22,91.22,0,0,0,22.51,3q16.78,0,25.81-5.36t9-16.32q0-8.26-7.17-14.13t-27.93-13.87q-19.76-7.36-28.07-12.84a38.35,38.35,0,0,1-12.39-12.46,32.44,32.44,0,0,1-4.06-16.64q0-17.29,14.06-27.3t38.59-10a113,113,0,0,1,44.64,9.29l-7.61,17.43q-21.29-8.78-38.58-8.78-15.24,0-23,4.78t-7.75,13.16a16,16,0,0,0,2.91,9.68q2.89,4,9.35,7.61t24.78,10.45q25.17,9.17,34,18.46T722.32,143Z" transform="translate(-4.84 -7.42)"/>
  </g>
</svg>
