<?xml version="1.0" encoding="utf-8"?>
<!-- Generator: Adobe Illustrator 23.0.2, SVG Export Plug-In . SVG Version: 6.00 Build 0)  -->
<svg version="1.1" id="Layer_1" xmlns="http://www.w3.org/2000/svg" xmlns:xlink="http://www.w3.org/1999/xlink" x="0px" y="0px"
	 viewBox="0 0 1119 281" style="enable-background:new 0 0 1119 281;" xml:space="preserve">
<g>
	<path style="fill:#eae8e8;" d="M116.56,225.85c18.57,0,33.8-8.54,41.6-25.26l50.52,14.49c-14.86,36.4-51.63,57.95-89.15,57.95
		c-62.77,0-104.38-43.46-104.38-103.26c0-65,40.49-108.46,101.4-108.46c65.75,0,99.55,50.15,93.98,119.98H69.76
		C73.47,209.13,89.44,225.85,116.56,225.85z M71.24,142.27h88.03c-3.34-23.77-14.12-37.14-42.72-37.14
		C89.44,105.13,76.07,119.98,71.24,142.27z"/>
	<path style="fill:#eae8e8;" d="M401.09,66.87l-72.8,200.58h-50.52l-72.8-200.58h50.52l47.54,138.92l47.54-138.92H401.09z"/>
	<path style="fill:#eae8e8;" d="M496.17,225.85c18.57,0,33.8-8.54,41.6-25.26l50.52,14.49c-14.86,36.4-51.63,57.95-89.15,57.95
		c-62.77,0-104.38-43.46-104.38-103.26c0-65,40.49-108.46,101.4-108.46c65.75,0,99.55,50.15,93.98,119.98H449.37
		C453.09,209.13,469.06,225.85,496.17,225.85z M450.86,142.27h88.03c-3.34-23.77-14.11-37.14-42.72-37.14
		C469.06,105.13,455.69,119.98,450.86,142.27z"/>
	<path style="fill:#eae8e8;" d="M787.39,170.5v96.95h-51.26v-94.72c0-20.8-2.97-41.6-13.37-52.75c-7.06-7.8-17.83-11.89-31.57-11.52
		c-9.29,0.37-17.09,2.97-23.77,7.8c-7.43,5.57-12.63,14.49-14.86,25.63c-1.86,8.91-2.23,24.52-2.23,38.26v87.29h-50.89V66.87h44.57
		v20.8c0.74-0.74,1.86-1.86,2.6-2.97c13-15.6,33.43-22.29,51.63-23.4c23.77-1.49,47.92,2.6,67.23,21.54
		C787.39,104.38,787.39,139.3,787.39,170.5z"/>
	<path style="fill:#eae8e8;" d="M871.33,179.42c0,15.6-0.74,28.6,4.08,36.03c4.83,7.8,13.37,10.77,21.17,11.52
		c9.66,0.74,21.92,0,32.69-1.49v41.97c-15.6,4.46-43.83,4.09-58.69,1.49c-18.57-3.34-30.09-9.29-40.86-25.26
		c-11.14-16.34-8.91-37.14-8.91-61.29v-76.52h-34.17v-39h34.17V11.15h50.52v55.72h57.95v39h-57.95V179.42z"/>
	<path style="fill:#eae8e8;" d="M1055.93,130.01c-1.86-14.11-14.11-24.52-32.32-25.26c-17.09-0.74-30.83,5.2-30.83,15.23
		c0,10.03,7.06,14.49,19.32,18.2c10.03,2.97,19.69,5.57,34.17,9.29c42.72,10.77,63.15,26.37,63.15,60.55c0,41.6-35.66,65-81.35,65
		c-50.52,0-84.32-20.06-92.12-65.75l51.63-7.8c4.09,19.69,20.06,30.09,41.6,30.09c15.97,0,28.6-6.31,28.6-19.32
		c0-10.4-8.17-15.6-22.66-19.69c-18.94-5.2-35.66-9.66-49.77-13.74c-26.37-7.43-42.72-26-42.72-54.23
		c0-40.86,37.89-61.29,79.49-61.29c43.09,0,79.86,19.69,85.43,59.43L1055.93,130.01z"/>
</g>
</svg>
