<?xml version="1.0" encoding="utf-8"?>
<!-- Generator: Adobe Illustrator 22.1.0, SVG Export Plug-In . SVG Version: 6.00 Build 0)  -->
<svg version="1.1" id="Layer_1" xmlns="http://www.w3.org/2000/svg" xmlns:xlink="http://www.w3.org/1999/xlink" x="0px" y="0px"
	 viewBox="0 0 234 309" style="enable-background:new 0 0 234 309;" xml:space="preserve">
<style type="text/css">
	.st0{fill:#FFFFFF;stroke:#000000;stroke-width:10;stroke-miterlimit:10;}
	.st1{fill:none;stroke:#000000;stroke-width:9;stroke-linecap:round;stroke-miterlimit:10;}
	.st2{fill:none;stroke:#000000;stroke-width:8;stroke-miterlimit:10;}
</style>
<g>
	<path class="st0" d="M176.7,83.5c0-27.1-21.9-49-49-49h-12.9c-27.1,0-49,21.9-49,49v64h110.9V83.5z M157.2,127.5H85.5V81.8
		c0-15.1,12.2-27.3,27.3-27.3h17c15.1,0,27.3,12.2,27.3,27.3V127.5z"/>
	<path class="st0" d="M199.1,148H44.9c-4.3,0-7.9,3.5-7.9,7.9v94.5C37,264,48,275,61.7,275h120.7c13.6,0,24.7-11,24.7-24.7v-94.5
		C207,151.5,203.5,148,199.1,148z M123.5,217.5c-9.9,0-18-8.1-18-18c0-9.9,8.1-18,18-18s18,8.1,18,18
		C141.5,209.4,133.4,217.5,123.5,217.5z"/>
</g>
<line class="st1" x1="123.5" y1="217.5" x2="123.5" y2="246.5"/>
<line class="st2" x1="37" y1="168" x2="207" y2="168"/>
</svg>
