<?xml version="1.0" encoding="utf-8"?>
<!-- Generator: Adobe Illustrator 23.0.2, SVG Export Plug-In . SVG Version: 6.00 Build 0)  -->
<svg version="1.1" id="Layer_1" xmlns="http://www.w3.org/2000/svg" xmlns:xlink="http://www.w3.org/1999/xlink" x="0px" y="0px"
	 viewBox="0 0 1056 281" style="enable-background:new 0 0 1056 281;" xml:space="preserve">
<g>
	<path style="fill:#eae8e8;" d="M305.22,54.87l-61.29,200.58h-41.97L161.48,124.7l-43.83,130.75H79.01L17.73,54.5l49.77,0.37
		l36.4,119.6l36.77-119.6h41.97l36.77,119.6l36.4-119.6H305.22z"/>
	<path style="fill:#eae8e8;" d="M394.74,213.85c18.57,0,33.8-8.54,41.6-25.26l50.52,14.49c-14.86,36.4-51.63,57.95-89.15,57.95
		c-62.77,0-104.38-43.46-104.38-103.26c0-65,40.49-108.46,101.4-108.46c65.75,0,99.55,50.15,93.98,119.98H347.94
		C351.66,197.13,367.63,213.85,394.74,213.85z M349.43,130.27h88.03c-3.34-23.77-14.11-37.14-42.72-37.14
		C367.63,93.13,354.26,107.98,349.43,130.27z"/>
	<path style="fill:#eae8e8;" d="M675.18,255.45v-24.52c-17.46,20.06-34.92,30.09-69.09,30.09c-40.49,0-66.12-25.26-66.12-62.77
		c0-29.34,15.23-46.06,36.03-55.35c26-11.51,60.55-15.23,93.23-20.06c-2.6-20.43-18.94-27.49-36.4-27.49s-33.43,7.8-40.49,24.52
		l-45.32-13.74c13.37-30.46,42.72-56.83,87.29-56.83c41.97,0,69.83,17.09,80.6,50.15c3.34,10.4,4.46,22.66,4.46,36.4v119.6H675.18z
		 M669.24,163.7c-26.74,4.46-38.63,6.69-54.23,11.14c-14.86,4.09-25.63,11.14-25.63,24.52c0,10.77,8.92,22.29,28.6,22.29
		c18.57,0,36.4-10.77,44.57-24.14C668.5,187.47,669.24,172.99,669.24,163.7z"/>
	<path style="fill:#eae8e8;" d="M858.67,54.87v47.17c-11.14-3.34-27.49-2.23-39.37,3.34c-17.46,8.17-27.49,23.77-27.49,47.54v102.52
		h-50.89V54.87h44.57v32.32c5.2-9.29,12.26-16.71,21.54-22.66C821.53,55.61,840.47,52.64,858.67,54.87z"/>
	<path style="fill:#eae8e8;" d="M950.05,213.85c18.57,0,33.8-8.54,41.6-25.26l50.52,14.49c-14.86,36.4-51.63,57.95-89.15,57.95
		c-62.77,0-104.38-43.46-104.38-103.26c0-65,40.49-108.46,101.4-108.46c65.75,0,99.55,50.15,93.98,119.98H903.25
		C906.96,197.13,922.93,213.85,950.05,213.85z M904.73,130.27h88.03c-3.34-23.77-14.12-37.14-42.72-37.14
		C922.93,93.13,909.56,107.98,904.73,130.27z"/>
</g>
</svg>
