<svg id="Layer_1" data-name="Layer 1" xmlns="http://www.w3.org/2000/svg" viewBox="0 0 874 193">
  <defs>
    <style>
      .cls-1 {
        fill: #ccc;
      }
    </style>
  </defs>
  <title>weAre</title>
  <g>
    <path class="cls-1" d="M174.29,187.14,141.18,81.21q-3.13-9.72-11.7-44.15h-1.32q-6.59,28.83-11.53,44.48l-34.1,105.6H50.89L1.63,6.58H30.3q17.46,68,26.61,103.63t10.46,47.94h1.32q1.8-9.39,5.85-24.3t7-23.64L114.65,6.58h29.66L176.6,110.21q9.22,28.33,12.52,47.61h1.32A175.07,175.07,0,0,1,194,139.53q2.88-12.36,34.35-132.95h28.34L206.75,187.14Z"/>
    <path class="cls-1" d="M331.83,190.44q-40,0-63.18-24.38T245.5,98.34Q245.5,54.69,267,29t57.74-25.7q33.94,0,53.71,22.33T398.22,84.5v17.3H273.83q.82,31.8,16.07,48.28t42.92,16.47a145.38,145.38,0,0,0,57.66-12.19v24.38a144.27,144.27,0,0,1-27.43,9Q350.11,190.44,331.83,190.44ZM324.41,26.18q-21.74,0-34.68,14.17T274.49,79.56H368.9q0-25.86-11.54-39.62T324.41,26.18Z"/>
    <path class="cls-1" d="M576.05,187.14l-5.43-25.7H569.3q-13.51,17-26.94,23t-33.52,6q-26.86,0-42.1-13.84T451.5,137.23q0-54.7,87.49-57.34l30.64-1V67.7q0-21.26-9.14-31.39T531.24,26.18q-22.57,0-51.07,13.84l-8.4-20.92A128.67,128.67,0,0,1,501,7.73a126.9,126.9,0,0,1,31.88-4.12q32.29,0,47.86,14.33t15.57,46V187.14Zm-61.78-19.27q25.54,0,40.12-14T569,114.65V98.34L541.62,99.5q-32.62,1.16-47,10.13t-14.41,27.92q0,14.83,9,22.58T514.27,167.87Z"/>
    <path class="cls-1" d="M701.3,3.28a106.89,106.89,0,0,1,21.58,2l-3.79,25.37a93,93,0,0,0-19.77-2.47q-21.92,0-37.48,17.79T646.27,90.27v96.87H618.92V6.58h22.57L644.62,40h1.32q10-17.63,24.22-27.18A54.53,54.53,0,0,1,701.3,3.28Z"/>
    <path class="cls-1" d="M799.19,190.44q-40,0-63.18-24.38T712.86,98.34q0-43.65,21.5-69.36t57.75-25.7q33.93,0,53.71,22.33T865.59,84.5v17.3H741.2q.82,31.8,16.06,48.28t42.92,16.47a145.46,145.46,0,0,0,57.67-12.19v24.38a144.12,144.12,0,0,1-27.44,9Q817.48,190.44,799.19,190.44ZM791.78,26.18q-21.75,0-34.68,14.17T741.86,79.56h94.4q0-25.86-11.53-39.62T791.78,26.18Z"/>
  </g>
</svg>
